<svg xmlns="http://www.w3.org/2000/svg" xmlns:xlink="http://www.w3.org/1999/xlink" width="1200" zoomAndPan="magnify" viewBox="0 0 900 225" height="300" preserveAspectRatio="xMidYMid meet" version="1.0"><defs><g/><clipPath id="916040af9c"><path d="M 129 115 L 186 115 L 186 202.5 L 129 202.5 Z M 129 115 " clip-rule="nonzero"/></clipPath><clipPath id="19ca618887"><path d="M 69 22.5 L 125 22.5 L 125 110 L 69 110 Z M 69 22.5 " clip-rule="nonzero"/></clipPath><clipPath id="9ff8cbab19"><path d="M 37.117188 115 L 125 115 L 125 171 L 37.117188 171 Z M 37.117188 115 " clip-rule="nonzero"/></clipPath><clipPath id="26caec83ae"><path d="M 129 54 L 217.117188 54 L 217.117188 110 L 129 110 Z M 129 54 " clip-rule="nonzero"/></clipPath></defs><g fill="#a6a6a6" fill-opacity="1"><g transform="translate(241.449379, 102.750006)"><g><path d="M 56.859375 -46.578125 L 56.859375 0 L 45.515625 0 L 45.515625 -27.9375 L 35.09375 0 L 25.9375 0 L 15.453125 -28 L 15.453125 0 L 4.109375 0 L 4.109375 -46.578125 L 17.515625 -46.578125 L 30.578125 -14.328125 L 43.515625 -46.578125 Z M 56.859375 -46.578125 "/></g></g></g><g fill="#a6a6a6" fill-opacity="1"><g transform="translate(302.338639, 102.750006)"><g><path d="M 20.296875 -37.546875 C 23.921875 -37.546875 27.148438 -36.769531 29.984375 -35.21875 C 32.816406 -33.675781 35.03125 -31.46875 36.625 -28.59375 C 38.21875 -25.71875 39.015625 -22.359375 39.015625 -18.515625 C 39.015625 -14.660156 38.226562 -11.296875 36.65625 -8.421875 C 35.082031 -5.546875 32.878906 -3.332031 30.046875 -1.78125 C 27.222656 -0.238281 23.972656 0.53125 20.296875 0.53125 C 16.710938 0.53125 13.523438 -0.21875 10.734375 -1.71875 C 7.953125 -3.226562 5.773438 -5.375 4.203125 -8.15625 C 2.640625 -10.945312 1.859375 -14.195312 1.859375 -17.90625 C 1.859375 -19.019531 1.925781 -20.128906 2.0625 -21.234375 L 27.734375 -21.234375 C 27.554688 -23.535156 26.8125 -25.289062 25.5 -26.5 C 24.195312 -27.71875 22.597656 -28.328125 20.703125 -28.328125 C 17.867188 -28.328125 15.898438 -27.132812 14.796875 -24.75 L 2.71875 -24.75 C 3.34375 -27.175781 4.457031 -29.363281 6.0625 -31.3125 C 7.675781 -33.257812 9.703125 -34.785156 12.140625 -35.890625 C 14.578125 -36.992188 17.296875 -37.546875 20.296875 -37.546875 Z M 20.4375 -8.5625 C 22.332031 -8.5625 23.929688 -9.113281 25.234375 -10.21875 C 26.546875 -11.320312 27.359375 -12.890625 27.671875 -14.921875 L 13.46875 -14.921875 C 13.46875 -12.984375 14.128906 -11.4375 15.453125 -10.28125 C 16.785156 -9.132812 18.445312 -8.5625 20.4375 -8.5625 Z M 20.4375 -8.5625 "/></g></g></g><g fill="#a6a6a6" fill-opacity="1"><g transform="translate(343.196792, 102.750006)"><g><path d="M 15.453125 -30.84375 C 16.785156 -32.882812 18.445312 -34.488281 20.4375 -35.65625 C 22.425781 -36.832031 24.632812 -37.421875 27.0625 -37.421875 L 27.0625 -25.40625 L 23.953125 -25.40625 C 21.117188 -25.40625 18.992188 -24.796875 17.578125 -23.578125 C 16.160156 -22.367188 15.453125 -20.238281 15.453125 -17.1875 L 15.453125 0 L 4.109375 0 L 4.109375 -37.015625 L 15.453125 -37.015625 Z M 15.453125 -30.84375 "/></g></g></g><g fill="#a6a6a6" fill-opacity="1"><g transform="translate(371.585245, 102.750006)"><g><path d="M 26.734375 0 L 15.453125 -15.53125 L 15.453125 0 L 4.109375 0 L 4.109375 -49.09375 L 15.453125 -49.09375 L 15.453125 -21.953125 L 26.671875 -37.015625 L 40.671875 -37.015625 L 25.28125 -18.4375 L 40.796875 0 Z M 26.734375 0 "/></g></g></g><g fill="#a6a6a6" fill-opacity="1"><g transform="translate(412.576047, 102.750006)"><g><path d="M 20.296875 -37.546875 C 23.921875 -37.546875 27.148438 -36.769531 29.984375 -35.21875 C 32.816406 -33.675781 35.03125 -31.46875 36.625 -28.59375 C 38.21875 -25.71875 39.015625 -22.359375 39.015625 -18.515625 C 39.015625 -14.660156 38.226562 -11.296875 36.65625 -8.421875 C 35.082031 -5.546875 32.878906 -3.332031 30.046875 -1.78125 C 27.222656 -0.238281 23.972656 0.53125 20.296875 0.53125 C 16.710938 0.53125 13.523438 -0.21875 10.734375 -1.71875 C 7.953125 -3.226562 5.773438 -5.375 4.203125 -8.15625 C 2.640625 -10.945312 1.859375 -14.195312 1.859375 -17.90625 C 1.859375 -19.019531 1.925781 -20.128906 2.0625 -21.234375 L 27.734375 -21.234375 C 27.554688 -23.535156 26.8125 -25.289062 25.5 -26.5 C 24.195312 -27.71875 22.597656 -28.328125 20.703125 -28.328125 C 17.867188 -28.328125 15.898438 -27.132812 14.796875 -24.75 L 2.71875 -24.75 C 3.34375 -27.175781 4.457031 -29.363281 6.0625 -31.3125 C 7.675781 -33.257812 9.703125 -34.785156 12.140625 -35.890625 C 14.578125 -36.992188 17.296875 -37.546875 20.296875 -37.546875 Z M 20.4375 -8.5625 C 22.332031 -8.5625 23.929688 -9.113281 25.234375 -10.21875 C 26.546875 -11.320312 27.359375 -12.890625 27.671875 -14.921875 L 13.46875 -14.921875 C 13.46875 -12.984375 14.128906 -11.4375 15.453125 -10.28125 C 16.785156 -9.132812 18.445312 -8.5625 20.4375 -8.5625 Z M 20.4375 -8.5625 "/></g></g></g><g fill="#a6a6a6" fill-opacity="1"><g transform="translate(453.434188, 102.750006)"><g><path d="M 14.734375 -9.359375 L 30.78125 -9.359375 L 30.78125 0 L 2.0625 0 L 2.0625 -9.015625 L 17.453125 -27.671875 L 2.1875 -27.671875 L 2.1875 -37.015625 L 30.453125 -37.015625 L 30.453125 -28 Z M 14.734375 -9.359375 "/></g></g></g><g fill="#545454" fill-opacity="1"><g transform="translate(241.449379, 168.750003)"><g><path d="M 28.265625 -23.8125 C 29.941406 -23.550781 31.476562 -22.867188 32.875 -21.765625 C 34.269531 -20.660156 35.375 -19.285156 36.1875 -17.640625 C 37.007812 -16.003906 37.421875 -14.257812 37.421875 -12.40625 C 37.421875 -10.0625 36.820312 -7.945312 35.625 -6.0625 C 34.425781 -4.1875 32.6875 -2.707031 30.40625 -1.625 C 28.132812 -0.539062 25.453125 0 22.359375 0 L 5.109375 0 L 5.109375 -46.234375 L 21.6875 -46.234375 C 24.832031 -46.234375 27.507812 -45.710938 29.71875 -44.671875 C 31.9375 -43.640625 33.597656 -42.238281 34.703125 -40.46875 C 35.804688 -38.695312 36.359375 -36.707031 36.359375 -34.5 C 36.359375 -31.757812 35.613281 -29.492188 34.125 -27.703125 C 32.644531 -25.910156 30.691406 -24.613281 28.265625 -23.8125 Z M 11.140625 -26.265625 L 21.296875 -26.265625 C 24.128906 -26.265625 26.316406 -26.925781 27.859375 -28.25 C 29.410156 -29.582031 30.1875 -31.421875 30.1875 -33.765625 C 30.1875 -36.109375 29.410156 -37.941406 27.859375 -39.265625 C 26.316406 -40.597656 24.082031 -41.265625 21.15625 -41.265625 L 11.140625 -41.265625 Z M 21.828125 -4.96875 C 24.835938 -4.96875 27.179688 -5.675781 28.859375 -7.09375 C 30.535156 -8.507812 31.375 -10.476562 31.375 -13 C 31.375 -15.5625 30.488281 -17.582031 28.71875 -19.0625 C 26.957031 -20.550781 24.59375 -21.296875 21.625 -21.296875 L 11.140625 -21.296875 L 11.140625 -4.96875 Z M 21.828125 -4.96875 "/></g></g></g><g fill="#545454" fill-opacity="1"><g transform="translate(282.108541, 168.750003)"><g><path d="M 37.34375 -36.359375 L 37.34375 0 L 31.3125 0 L 31.3125 -5.375 C 30.164062 -3.519531 28.5625 -2.070312 26.5 -1.03125 C 24.445312 0.0078125 22.179688 0.53125 19.703125 0.53125 C 16.867188 0.53125 14.320312 -0.0507812 12.0625 -1.21875 C 9.8125 -2.394531 8.035156 -4.15625 6.734375 -6.5 C 5.429688 -8.84375 4.78125 -11.695312 4.78125 -15.0625 L 4.78125 -36.359375 L 10.75 -36.359375 L 10.75 -15.859375 C 10.75 -12.273438 11.65625 -9.519531 13.46875 -7.59375 C 15.28125 -5.664062 17.753906 -4.703125 20.890625 -4.703125 C 24.117188 -4.703125 26.660156 -5.695312 28.515625 -7.6875 C 30.378906 -9.6875 31.3125 -12.585938 31.3125 -16.390625 L 31.3125 -36.359375 Z M 37.34375 -36.359375 "/></g></g></g><g fill="#545454" fill-opacity="1"><g transform="translate(324.558567, 168.750003)"><g><path d="M 17.984375 0.59375 C 15.191406 0.59375 12.691406 0.117188 10.484375 -0.828125 C 8.273438 -1.773438 6.523438 -3.097656 5.234375 -4.796875 C 3.953125 -6.503906 3.25 -8.46875 3.125 -10.6875 L 9.359375 -10.6875 C 9.535156 -8.875 10.382812 -7.390625 11.90625 -6.234375 C 13.4375 -5.085938 15.4375 -4.515625 17.90625 -4.515625 C 20.207031 -4.515625 22.019531 -5.019531 23.34375 -6.03125 C 24.675781 -7.050781 25.34375 -8.335938 25.34375 -9.890625 C 25.34375 -11.484375 24.632812 -12.664062 23.21875 -13.4375 C 21.800781 -14.207031 19.613281 -14.96875 16.65625 -15.71875 C 13.957031 -16.425781 11.753906 -17.144531 10.046875 -17.875 C 8.347656 -18.601562 6.890625 -19.6875 5.671875 -21.125 C 4.453125 -22.5625 3.84375 -24.453125 3.84375 -26.796875 C 3.84375 -28.660156 4.394531 -30.363281 5.5 -31.90625 C 6.613281 -33.457031 8.1875 -34.6875 10.21875 -35.59375 C 12.25 -36.5 14.570312 -36.953125 17.1875 -36.953125 C 21.207031 -36.953125 24.457031 -35.929688 26.9375 -33.890625 C 29.414062 -31.859375 30.742188 -29.078125 30.921875 -25.546875 L 24.875 -25.546875 C 24.75 -27.441406 23.988281 -28.960938 22.59375 -30.109375 C 21.195312 -31.265625 19.328125 -31.84375 16.984375 -31.84375 C 14.816406 -31.84375 13.09375 -31.378906 11.8125 -30.453125 C 10.53125 -29.523438 9.890625 -28.304688 9.890625 -26.796875 C 9.890625 -25.609375 10.273438 -24.625 11.046875 -23.84375 C 11.816406 -23.070312 12.785156 -22.453125 13.953125 -21.984375 C 15.128906 -21.523438 16.757812 -21.007812 18.84375 -20.4375 C 21.445312 -19.726562 23.566406 -19.03125 25.203125 -18.34375 C 26.847656 -17.65625 28.253906 -16.625 29.421875 -15.25 C 30.597656 -13.882812 31.207031 -12.097656 31.25 -9.890625 C 31.25 -7.898438 30.695312 -6.109375 29.59375 -4.515625 C 28.488281 -2.921875 26.925781 -1.671875 24.90625 -0.765625 C 22.894531 0.140625 20.585938 0.59375 17.984375 0.59375 Z M 17.984375 0.59375 "/></g></g></g><g fill="#545454" fill-opacity="1"><g transform="translate(359.181864, 168.750003)"><g><path d="M 8.234375 -42.265625 C 7.078125 -42.265625 6.097656 -42.660156 5.296875 -43.453125 C 4.503906 -44.253906 4.109375 -45.226562 4.109375 -46.375 C 4.109375 -47.519531 4.503906 -48.488281 5.296875 -49.28125 C 6.097656 -50.082031 7.078125 -50.484375 8.234375 -50.484375 C 9.335938 -50.484375 10.273438 -50.082031 11.046875 -49.28125 C 11.816406 -48.488281 12.203125 -47.519531 12.203125 -46.375 C 12.203125 -45.226562 11.816406 -44.253906 11.046875 -43.453125 C 10.273438 -42.660156 9.335938 -42.265625 8.234375 -42.265625 Z M 11.140625 -36.359375 L 11.140625 0 L 5.109375 0 L 5.109375 -36.359375 Z M 11.140625 -36.359375 "/></g></g></g><g fill="#545454" fill-opacity="1"><g transform="translate(375.498598, 168.750003)"><g><path d="M 22.828125 -37.015625 C 27.242188 -37.015625 30.820312 -35.675781 33.5625 -33 C 36.3125 -30.332031 37.6875 -26.472656 37.6875 -21.421875 L 37.6875 0 L 31.71875 0 L 31.71875 -20.5625 C 31.71875 -24.1875 30.804688 -26.960938 28.984375 -28.890625 C 27.171875 -30.816406 24.695312 -31.78125 21.5625 -31.78125 C 18.375 -31.78125 15.835938 -30.785156 13.953125 -28.796875 C 12.078125 -26.804688 11.140625 -23.910156 11.140625 -20.109375 L 11.140625 0 L 5.109375 0 L 5.109375 -36.359375 L 11.140625 -36.359375 L 11.140625 -31.1875 C 12.335938 -33.039062 13.960938 -34.472656 16.015625 -35.484375 C 18.078125 -36.503906 20.347656 -37.015625 22.828125 -37.015625 Z M 22.828125 -37.015625 "/></g></g></g><g fill="#545454" fill-opacity="1"><g transform="translate(417.948624, 168.750003)"><g><path d="M 38.28125 -19.578125 C 38.28125 -18.421875 38.210938 -17.203125 38.078125 -15.921875 L 9.015625 -15.921875 C 9.242188 -12.335938 10.472656 -9.539062 12.703125 -7.53125 C 14.941406 -5.519531 17.648438 -4.515625 20.828125 -4.515625 C 23.441406 -4.515625 25.617188 -5.117188 27.359375 -6.328125 C 29.109375 -7.546875 30.335938 -9.175781 31.046875 -11.21875 L 37.546875 -11.21875 C 36.578125 -7.71875 34.628906 -4.875 31.703125 -2.6875 C 28.785156 -0.5 25.160156 0.59375 20.828125 0.59375 C 17.378906 0.59375 14.296875 -0.175781 11.578125 -1.71875 C 8.859375 -3.269531 6.722656 -5.472656 5.171875 -8.328125 C 3.628906 -11.179688 2.859375 -14.488281 2.859375 -18.25 C 2.859375 -22.007812 3.609375 -25.300781 5.109375 -28.125 C 6.609375 -30.957031 8.71875 -33.132812 11.4375 -34.65625 C 14.164062 -36.1875 17.296875 -36.953125 20.828125 -36.953125 C 24.273438 -36.953125 27.328125 -36.195312 29.984375 -34.6875 C 32.640625 -33.1875 34.6875 -31.117188 36.125 -28.484375 C 37.5625 -25.859375 38.28125 -22.890625 38.28125 -19.578125 Z M 32.046875 -20.828125 C 32.046875 -23.128906 31.535156 -25.109375 30.515625 -26.765625 C 29.503906 -28.421875 28.125 -29.679688 26.375 -30.546875 C 24.625 -31.410156 22.6875 -31.84375 20.5625 -31.84375 C 17.507812 -31.84375 14.910156 -30.867188 12.765625 -28.921875 C 10.617188 -26.972656 9.394531 -24.273438 9.09375 -20.828125 Z M 32.046875 -20.828125 "/></g></g></g><g fill="#545454" fill-opacity="1"><g transform="translate(459.072097, 168.750003)"><g><path d="M 17.984375 0.59375 C 15.191406 0.59375 12.691406 0.117188 10.484375 -0.828125 C 8.273438 -1.773438 6.523438 -3.097656 5.234375 -4.796875 C 3.953125 -6.503906 3.25 -8.46875 3.125 -10.6875 L 9.359375 -10.6875 C 9.535156 -8.875 10.382812 -7.390625 11.90625 -6.234375 C 13.4375 -5.085938 15.4375 -4.515625 17.90625 -4.515625 C 20.207031 -4.515625 22.019531 -5.019531 23.34375 -6.03125 C 24.675781 -7.050781 25.34375 -8.335938 25.34375 -9.890625 C 25.34375 -11.484375 24.632812 -12.664062 23.21875 -13.4375 C 21.800781 -14.207031 19.613281 -14.96875 16.65625 -15.71875 C 13.957031 -16.425781 11.753906 -17.144531 10.046875 -17.875 C 8.347656 -18.601562 6.890625 -19.6875 5.671875 -21.125 C 4.453125 -22.5625 3.84375 -24.453125 3.84375 -26.796875 C 3.84375 -28.660156 4.394531 -30.363281 5.5 -31.90625 C 6.613281 -33.457031 8.1875 -34.6875 10.21875 -35.59375 C 12.25 -36.5 14.570312 -36.953125 17.1875 -36.953125 C 21.207031 -36.953125 24.457031 -35.929688 26.9375 -33.890625 C 29.414062 -31.859375 30.742188 -29.078125 30.921875 -25.546875 L 24.875 -25.546875 C 24.75 -27.441406 23.988281 -28.960938 22.59375 -30.109375 C 21.195312 -31.265625 19.328125 -31.84375 16.984375 -31.84375 C 14.816406 -31.84375 13.09375 -31.378906 11.8125 -30.453125 C 10.53125 -29.523438 9.890625 -28.304688 9.890625 -26.796875 C 9.890625 -25.609375 10.273438 -24.625 11.046875 -23.84375 C 11.816406 -23.070312 12.785156 -22.453125 13.953125 -21.984375 C 15.128906 -21.523438 16.757812 -21.007812 18.84375 -20.4375 C 21.445312 -19.726562 23.566406 -19.03125 25.203125 -18.34375 C 26.847656 -17.65625 28.253906 -16.625 29.421875 -15.25 C 30.597656 -13.882812 31.207031 -12.097656 31.25 -9.890625 C 31.25 -7.898438 30.695312 -6.109375 29.59375 -4.515625 C 28.488281 -2.921875 26.925781 -1.671875 24.90625 -0.765625 C 22.894531 0.140625 20.585938 0.59375 17.984375 0.59375 Z M 17.984375 0.59375 "/></g></g></g><g fill="#545454" fill-opacity="1"><g transform="translate(493.695371, 168.750003)"><g><path d="M 17.984375 0.59375 C 15.191406 0.59375 12.691406 0.117188 10.484375 -0.828125 C 8.273438 -1.773438 6.523438 -3.097656 5.234375 -4.796875 C 3.953125 -6.503906 3.25 -8.46875 3.125 -10.6875 L 9.359375 -10.6875 C 9.535156 -8.875 10.382812 -7.390625 11.90625 -6.234375 C 13.4375 -5.085938 15.4375 -4.515625 17.90625 -4.515625 C 20.207031 -4.515625 22.019531 -5.019531 23.34375 -6.03125 C 24.675781 -7.050781 25.34375 -8.335938 25.34375 -9.890625 C 25.34375 -11.484375 24.632812 -12.664062 23.21875 -13.4375 C 21.800781 -14.207031 19.613281 -14.96875 16.65625 -15.71875 C 13.957031 -16.425781 11.753906 -17.144531 10.046875 -17.875 C 8.347656 -18.601562 6.890625 -19.6875 5.671875 -21.125 C 4.453125 -22.5625 3.84375 -24.453125 3.84375 -26.796875 C 3.84375 -28.660156 4.394531 -30.363281 5.5 -31.90625 C 6.613281 -33.457031 8.1875 -34.6875 10.21875 -35.59375 C 12.25 -36.5 14.570312 -36.953125 17.1875 -36.953125 C 21.207031 -36.953125 24.457031 -35.929688 26.9375 -33.890625 C 29.414062 -31.859375 30.742188 -29.078125 30.921875 -25.546875 L 24.875 -25.546875 C 24.75 -27.441406 23.988281 -28.960938 22.59375 -30.109375 C 21.195312 -31.265625 19.328125 -31.84375 16.984375 -31.84375 C 14.816406 -31.84375 13.09375 -31.378906 11.8125 -30.453125 C 10.53125 -29.523438 9.890625 -28.304688 9.890625 -26.796875 C 9.890625 -25.609375 10.273438 -24.625 11.046875 -23.84375 C 11.816406 -23.070312 12.785156 -22.453125 13.953125 -21.984375 C 15.128906 -21.523438 16.757812 -21.007812 18.84375 -20.4375 C 21.445312 -19.726562 23.566406 -19.03125 25.203125 -18.34375 C 26.847656 -17.65625 28.253906 -16.625 29.421875 -15.25 C 30.597656 -13.882812 31.207031 -12.097656 31.25 -9.890625 C 31.25 -7.898438 30.695312 -6.109375 29.59375 -4.515625 C 28.488281 -2.921875 26.925781 -1.671875 24.90625 -0.765625 C 22.894531 0.140625 20.585938 0.59375 17.984375 0.59375 Z M 17.984375 0.59375 "/></g></g></g><g fill="#545454" fill-opacity="1"><g transform="translate(528.318692, 168.750003)"><g/></g></g><g fill="#545454" fill-opacity="1"><g transform="translate(546.028286, 168.750003)"><g><path d="M 48.828125 -37.015625 C 51.660156 -37.015625 54.179688 -36.425781 56.390625 -35.25 C 58.597656 -34.082031 60.34375 -32.328125 61.625 -29.984375 C 62.914062 -27.640625 63.5625 -24.785156 63.5625 -21.421875 L 63.5625 0 L 57.59375 0 L 57.59375 -20.5625 C 57.59375 -24.1875 56.695312 -26.960938 54.90625 -28.890625 C 53.113281 -30.816406 50.691406 -31.78125 47.640625 -31.78125 C 44.492188 -31.78125 41.988281 -30.769531 40.125 -28.75 C 38.269531 -26.738281 37.34375 -23.832031 37.34375 -20.03125 L 37.34375 0 L 31.375 0 L 31.375 -20.5625 C 31.375 -24.1875 30.476562 -26.960938 28.6875 -28.890625 C 26.894531 -30.816406 24.472656 -31.78125 21.421875 -31.78125 C 18.285156 -31.78125 15.785156 -30.769531 13.921875 -28.75 C 12.066406 -26.738281 11.140625 -23.832031 11.140625 -20.03125 L 11.140625 0 L 5.109375 0 L 5.109375 -36.359375 L 11.140625 -36.359375 L 11.140625 -31.109375 C 12.335938 -33.015625 13.941406 -34.472656 15.953125 -35.484375 C 17.960938 -36.503906 20.1875 -37.015625 22.625 -37.015625 C 25.675781 -37.015625 28.375 -36.328125 30.71875 -34.953125 C 33.0625 -33.585938 34.804688 -31.578125 35.953125 -28.921875 C 36.972656 -31.492188 38.65625 -33.484375 41 -34.890625 C 43.34375 -36.304688 45.953125 -37.015625 48.828125 -37.015625 Z M 48.828125 -37.015625 "/></g></g></g><g fill="#545454" fill-opacity="1"><g transform="translate(614.346306, 168.750003)"><g><path d="M 2.859375 -18.3125 C 2.859375 -22.03125 3.609375 -25.289062 5.109375 -28.09375 C 6.609375 -30.90625 8.675781 -33.082031 11.3125 -34.625 C 13.945312 -36.175781 16.878906 -36.953125 20.109375 -36.953125 C 23.285156 -36.953125 26.046875 -36.265625 28.390625 -34.890625 C 30.734375 -33.523438 32.484375 -31.800781 33.640625 -29.71875 L 33.640625 -36.359375 L 39.734375 -36.359375 L 39.734375 0 L 33.640625 0 L 33.640625 -6.765625 C 32.441406 -4.640625 30.660156 -2.878906 28.296875 -1.484375 C 25.929688 -0.0976562 23.175781 0.59375 20.03125 0.59375 C 16.800781 0.59375 13.878906 -0.195312 11.265625 -1.78125 C 8.660156 -3.375 6.609375 -5.609375 5.109375 -8.484375 C 3.609375 -11.359375 2.859375 -14.632812 2.859375 -18.3125 Z M 33.640625 -18.25 C 33.640625 -20.988281 33.082031 -23.375 31.96875 -25.40625 C 30.863281 -27.445312 29.375 -29.007812 27.5 -30.09375 C 25.625 -31.175781 23.554688 -31.71875 21.296875 -31.71875 C 19.035156 -31.71875 16.976562 -31.1875 15.125 -30.125 C 13.269531 -29.0625 11.785156 -27.507812 10.671875 -25.46875 C 9.566406 -23.4375 9.015625 -21.050781 9.015625 -18.3125 C 9.015625 -15.519531 9.566406 -13.097656 10.671875 -11.046875 C 11.785156 -8.992188 13.269531 -7.421875 15.125 -6.328125 C 16.976562 -5.242188 19.035156 -4.703125 21.296875 -4.703125 C 23.554688 -4.703125 25.625 -5.242188 27.5 -6.328125 C 29.375 -7.421875 30.863281 -8.992188 31.96875 -11.046875 C 33.082031 -13.097656 33.640625 -15.5 33.640625 -18.25 Z M 33.640625 -18.25 "/></g></g></g><g fill="#545454" fill-opacity="1"><g transform="translate(659.184164, 168.750003)"><g><path d="M 22.828125 -37.015625 C 27.242188 -37.015625 30.820312 -35.675781 33.5625 -33 C 36.3125 -30.332031 37.6875 -26.472656 37.6875 -21.421875 L 37.6875 0 L 31.71875 0 L 31.71875 -20.5625 C 31.71875 -24.1875 30.804688 -26.960938 28.984375 -28.890625 C 27.171875 -30.816406 24.695312 -31.78125 21.5625 -31.78125 C 18.375 -31.78125 15.835938 -30.785156 13.953125 -28.796875 C 12.078125 -26.804688 11.140625 -23.910156 11.140625 -20.109375 L 11.140625 0 L 5.109375 0 L 5.109375 -36.359375 L 11.140625 -36.359375 L 11.140625 -31.1875 C 12.335938 -33.039062 13.960938 -34.472656 16.015625 -35.484375 C 18.078125 -36.503906 20.347656 -37.015625 22.828125 -37.015625 Z M 22.828125 -37.015625 "/></g></g></g><g fill="#545454" fill-opacity="1"><g transform="translate(701.634144, 168.750003)"><g><path d="M 2.859375 -18.3125 C 2.859375 -22.03125 3.609375 -25.289062 5.109375 -28.09375 C 6.609375 -30.90625 8.675781 -33.082031 11.3125 -34.625 C 13.945312 -36.175781 16.878906 -36.953125 20.109375 -36.953125 C 23.285156 -36.953125 26.046875 -36.265625 28.390625 -34.890625 C 30.734375 -33.523438 32.484375 -31.800781 33.640625 -29.71875 L 33.640625 -36.359375 L 39.734375 -36.359375 L 39.734375 0 L 33.640625 0 L 33.640625 -6.765625 C 32.441406 -4.640625 30.660156 -2.878906 28.296875 -1.484375 C 25.929688 -0.0976562 23.175781 0.59375 20.03125 0.59375 C 16.800781 0.59375 13.878906 -0.195312 11.265625 -1.78125 C 8.660156 -3.375 6.609375 -5.609375 5.109375 -8.484375 C 3.609375 -11.359375 2.859375 -14.632812 2.859375 -18.3125 Z M 33.640625 -18.25 C 33.640625 -20.988281 33.082031 -23.375 31.96875 -25.40625 C 30.863281 -27.445312 29.375 -29.007812 27.5 -30.09375 C 25.625 -31.175781 23.554688 -31.71875 21.296875 -31.71875 C 19.035156 -31.71875 16.976562 -31.1875 15.125 -30.125 C 13.269531 -29.0625 11.785156 -27.507812 10.671875 -25.46875 C 9.566406 -23.4375 9.015625 -21.050781 9.015625 -18.3125 C 9.015625 -15.519531 9.566406 -13.097656 10.671875 -11.046875 C 11.785156 -8.992188 13.269531 -7.421875 15.125 -6.328125 C 16.976562 -5.242188 19.035156 -4.703125 21.296875 -4.703125 C 23.554688 -4.703125 25.625 -5.242188 27.5 -6.328125 C 29.375 -7.421875 30.863281 -8.992188 31.96875 -11.046875 C 33.082031 -13.097656 33.640625 -15.5 33.640625 -18.25 Z M 33.640625 -18.25 "/></g></g></g><g fill="#545454" fill-opacity="1"><g transform="translate(746.472002, 168.750003)"><g><path d="M 20.109375 -36.953125 C 23.242188 -36.953125 25.992188 -36.265625 28.359375 -34.890625 C 30.722656 -33.523438 32.484375 -31.800781 33.640625 -29.71875 L 33.640625 -36.359375 L 39.734375 -36.359375 L 39.734375 0.796875 C 39.734375 4.109375 39.023438 7.054688 37.609375 9.640625 C 36.203125 12.234375 34.179688 14.257812 31.546875 15.71875 C 28.910156 17.175781 25.847656 17.90625 22.359375 17.90625 C 17.578125 17.90625 13.59375 16.773438 10.40625 14.515625 C 7.226562 12.265625 5.351562 9.195312 4.78125 5.3125 L 10.75 5.3125 C 11.414062 7.519531 12.785156 9.296875 14.859375 10.640625 C 16.941406 11.992188 19.441406 12.671875 22.359375 12.671875 C 25.671875 12.671875 28.378906 11.628906 30.484375 9.546875 C 32.585938 7.472656 33.640625 4.554688 33.640625 0.796875 L 33.640625 -6.828125 C 32.441406 -4.710938 30.671875 -2.945312 28.328125 -1.53125 C 25.984375 -0.113281 23.242188 0.59375 20.109375 0.59375 C 16.878906 0.59375 13.945312 -0.195312 11.3125 -1.78125 C 8.675781 -3.375 6.609375 -5.609375 5.109375 -8.484375 C 3.609375 -11.359375 2.859375 -14.632812 2.859375 -18.3125 C 2.859375 -22.03125 3.609375 -25.289062 5.109375 -28.09375 C 6.609375 -30.90625 8.675781 -33.082031 11.3125 -34.625 C 13.945312 -36.175781 16.878906 -36.953125 20.109375 -36.953125 Z M 33.640625 -18.25 C 33.640625 -20.988281 33.082031 -23.375 31.96875 -25.40625 C 30.863281 -27.445312 29.375 -29.007812 27.5 -30.09375 C 25.625 -31.175781 23.554688 -31.71875 21.296875 -31.71875 C 19.035156 -31.71875 16.976562 -31.1875 15.125 -30.125 C 13.269531 -29.0625 11.785156 -27.507812 10.671875 -25.46875 C 9.566406 -23.4375 9.015625 -21.050781 9.015625 -18.3125 C 9.015625 -15.519531 9.566406 -13.097656 10.671875 -11.046875 C 11.785156 -8.992188 13.269531 -7.421875 15.125 -6.328125 C 16.976562 -5.242188 19.035156 -4.703125 21.296875 -4.703125 C 23.554688 -4.703125 25.625 -5.242188 27.5 -6.328125 C 29.375 -7.421875 30.863281 -8.992188 31.96875 -11.046875 C 33.082031 -13.097656 33.640625 -15.5 33.640625 -18.25 Z M 33.640625 -18.25 "/></g></g></g><g fill="#545454" fill-opacity="1"><g transform="translate(791.30986, 168.750003)"><g><path d="M 38.28125 -19.578125 C 38.28125 -18.421875 38.210938 -17.203125 38.078125 -15.921875 L 9.015625 -15.921875 C 9.242188 -12.335938 10.472656 -9.539062 12.703125 -7.53125 C 14.941406 -5.519531 17.648438 -4.515625 20.828125 -4.515625 C 23.441406 -4.515625 25.617188 -5.117188 27.359375 -6.328125 C 29.109375 -7.546875 30.335938 -9.175781 31.046875 -11.21875 L 37.546875 -11.21875 C 36.578125 -7.71875 34.628906 -4.875 31.703125 -2.6875 C 28.785156 -0.5 25.160156 0.59375 20.828125 0.59375 C 17.378906 0.59375 14.296875 -0.175781 11.578125 -1.71875 C 8.859375 -3.269531 6.722656 -5.472656 5.171875 -8.328125 C 3.628906 -11.179688 2.859375 -14.488281 2.859375 -18.25 C 2.859375 -22.007812 3.609375 -25.300781 5.109375 -28.125 C 6.609375 -30.957031 8.71875 -33.132812 11.4375 -34.65625 C 14.164062 -36.1875 17.296875 -36.953125 20.828125 -36.953125 C 24.273438 -36.953125 27.328125 -36.195312 29.984375 -34.6875 C 32.640625 -33.1875 34.6875 -31.117188 36.125 -28.484375 C 37.5625 -25.859375 38.28125 -22.890625 38.28125 -19.578125 Z M 32.046875 -20.828125 C 32.046875 -23.128906 31.535156 -25.109375 30.515625 -26.765625 C 29.503906 -28.421875 28.125 -29.679688 26.375 -30.546875 C 24.625 -31.410156 22.6875 -31.84375 20.5625 -31.84375 C 17.507812 -31.84375 14.910156 -30.867188 12.765625 -28.921875 C 10.617188 -26.972656 9.394531 -24.273438 9.09375 -20.828125 Z M 32.046875 -20.828125 "/></g></g></g><g fill="#545454" fill-opacity="1"><g transform="translate(832.433287, 168.750003)"><g><path d="M 11.140625 -30.453125 C 12.203125 -32.523438 13.71875 -34.132812 15.6875 -35.28125 C 17.65625 -36.4375 20.054688 -37.015625 22.890625 -37.015625 L 22.890625 -30.78125 L 21.296875 -30.78125 C 14.523438 -30.78125 11.140625 -27.109375 11.140625 -19.765625 L 11.140625 0 L 5.109375 0 L 5.109375 -36.359375 L 11.140625 -36.359375 Z M 11.140625 -30.453125 "/></g></g></g><g clip-path="url(#916040af9c)"><path fill="#34a853" d="M 185.222656 170.605469 L 129.976562 202.5 L 129.976562 147.253906 L 185.222656 115.355469 Z M 185.222656 170.605469 " fill-opacity="1" fill-rule="evenodd"/></g><g clip-path="url(#19ca618887)"><path fill="#fbbc05" d="M 69.015625 54.398438 L 124.261719 22.5 L 124.261719 77.746094 L 69.015625 109.644531 Z M 69.015625 54.398438 " fill-opacity="1" fill-rule="evenodd"/></g><g clip-path="url(#9ff8cbab19)"><path fill="#4285f4" d="M 69.015625 170.605469 L 37.117188 115.355469 L 92.367188 115.355469 L 124.261719 170.605469 Z M 69.015625 170.605469 " fill-opacity="1" fill-rule="evenodd"/></g><g clip-path="url(#26caec83ae)"><path fill="#ea4335" d="M 185.222656 54.398438 L 217.121094 109.644531 L 161.871094 109.644531 L 129.976562 54.398438 Z M 185.222656 54.398438 " fill-opacity="1" fill-rule="evenodd"/></g></svg>