<svg xmlns="http://www.w3.org/2000/svg" xmlns:xlink="http://www.w3.org/1999/xlink" width="400" zoomAndPan="magnify" viewBox="0 0 300 112.499997" height="150" preserveAspectRatio="xMidYMid meet" version="1.0"><defs><g/><clipPath id="824e848c9a"><path d="M 0.664062 9 L 299.335938 9 L 299.335938 104 L 0.664062 104 Z M 0.664062 9 " clip-rule="nonzero"/></clipPath><clipPath id="a893747e65"><path d="M 86 22 L 140 22 L 140 94.699219 L 86 94.699219 Z M 86 22 " clip-rule="nonzero"/></clipPath><clipPath id="a1bb1247ae"><rect x="0" width="300" y="0" height="95"/></clipPath></defs><g clip-path="url(#824e848c9a)"><g transform="matrix(1, 0, 0, 1, 0, 9)"><g clip-path="url(#a1bb1247ae)"><g fill="#737373" fill-opacity="1"><g transform="translate(0.678869, 74.145441)"><g><path d="M 56.015625 -67.75 C 56.015625 -67.75 56.015625 -45.164062 56.015625 0 C 56.015625 0 52.285156 0 44.828125 0 C 44.828125 0 44.828125 -2.191406 44.828125 -6.578125 C 42.347656 -3.835938 39.789062 -1.851562 37.15625 -0.625 C 34.53125 0.59375 31.503906 1.203125 28.078125 1.203125 C 23.328125 1.203125 19.003906 0.0390625 15.109375 -2.28125 C 11.210938 -4.613281 8.144531 -7.820312 5.90625 -11.90625 C 3.664062 -16 2.546875 -20.523438 2.546875 -25.484375 C 2.546875 -30.460938 3.671875 -35.039062 5.921875 -39.21875 C 8.179688 -43.40625 11.257812 -46.691406 15.15625 -49.078125 C 19.050781 -51.460938 23.328125 -52.65625 27.984375 -52.65625 C 31.179688 -52.65625 34.175781 -52.085938 36.96875 -50.953125 C 39.757812 -49.816406 42.050781 -48.265625 43.84375 -46.296875 L 43.84375 -67.75 Z M 29.515625 -41.46875 C 25.390625 -41.46875 21.914062 -39.972656 19.09375 -36.984375 C 16.269531 -34.003906 14.859375 -30.300781 14.859375 -25.875 C 14.859375 -21.425781 16.328125 -17.664062 19.265625 -14.59375 C 22.210938 -11.519531 25.789062 -9.984375 30 -9.984375 C 34.125 -9.984375 37.609375 -11.488281 40.453125 -14.5 C 43.304688 -17.519531 44.734375 -21.207031 44.734375 -25.5625 C 44.734375 -30.164062 43.300781 -33.96875 40.4375 -36.96875 C 37.570312 -39.96875 33.929688 -41.46875 29.515625 -41.46875 Z M 29.515625 -41.46875 "/></g></g></g><g fill="#737373" fill-opacity="1"><g transform="translate(61.61013, 74.145441)"><g><path d="M 4.96875 0 C 4.96875 0 4.96875 -16.941406 4.96875 -50.828125 C 4.96875 -50.828125 9.03125 -50.828125 17.15625 -50.828125 C 17.15625 -50.828125 17.15625 -33.882812 17.15625 0 C 17.15625 0 13.09375 0 4.96875 0 Z M 4.96875 -56.28125 C 4.96875 -56.28125 4.96875 -60.101562 4.96875 -67.75 C 4.96875 -67.75 9.03125 -67.75 17.15625 -67.75 C 17.15625 -67.75 17.15625 -63.925781 17.15625 -56.28125 C 17.15625 -56.28125 13.09375 -56.28125 4.96875 -56.28125 Z M 4.96875 -56.28125 "/></g></g></g><g clip-path="url(#a893747e65)"><g fill="#737373" fill-opacity="1"><g transform="translate(83.681488, 74.145441)"><g><path d="M 44.1875 -50.828125 C 44.1875 -50.828125 48.070312 -50.828125 55.84375 -50.828125 C 55.84375 -50.828125 55.84375 -37.09375 55.84375 -9.625 C 55.84375 -4.582031 55.398438 -0.398438 54.515625 2.921875 C 53.628906 6.253906 52.203125 9.101562 50.234375 11.46875 C 45.398438 17.34375 38.492188 20.28125 29.515625 20.28125 C 23.296875 20.28125 17.90625 18.863281 13.34375 16.03125 C 8.78125 13.195312 5.46875 9.226562 3.40625 4.125 L 17.234375 4.125 C 19.023438 6.09375 20.890625 7.484375 22.828125 8.296875 C 24.773438 9.117188 27.164062 9.53125 30 9.53125 C 34.539062 9.53125 37.988281 8.1875 40.34375 5.5 C 42.695312 2.820312 43.976562 -1.25 44.1875 -6.71875 C 41.800781 -3.90625 39.316406 -1.878906 36.734375 -0.640625 C 34.148438 0.585938 31.070312 1.203125 27.5 1.203125 C 22.71875 1.203125 18.421875 0.0546875 14.609375 -2.234375 C 10.804688 -4.535156 7.84375 -7.738281 5.71875 -11.84375 C 3.601562 -15.945312 2.546875 -20.582031 2.546875 -25.75 C 2.546875 -33.269531 4.921875 -39.519531 9.671875 -44.5 C 14.421875 -49.488281 20.390625 -51.984375 27.578125 -51.984375 C 34.867188 -51.984375 40.40625 -49.445312 44.1875 -44.375 Z M 28.796875 -40.796875 C 24.609375 -40.796875 21.238281 -39.367188 18.6875 -36.515625 C 16.132812 -33.660156 14.859375 -29.890625 14.859375 -25.203125 C 14.859375 -20.578125 16.148438 -16.882812 18.734375 -14.125 C 21.316406 -11.363281 24.789062 -9.984375 29.15625 -9.984375 C 33.570312 -9.984375 37.09375 -11.378906 39.71875 -14.171875 C 42.34375 -16.960938 43.65625 -20.703125 43.65625 -25.390625 C 43.65625 -29.984375 42.289062 -33.695312 39.5625 -36.53125 C 36.832031 -39.375 33.242188 -40.796875 28.796875 -40.796875 Z M 28.796875 -40.796875 "/></g></g></g></g><g fill="#737373" fill-opacity="1"><g transform="translate(144.433672, 74.145441)"><g><path d="M 4.96875 0 C 4.96875 0 4.96875 -16.941406 4.96875 -50.828125 C 4.96875 -50.828125 9.03125 -50.828125 17.15625 -50.828125 C 17.15625 -50.828125 17.15625 -33.882812 17.15625 0 C 17.15625 0 13.09375 0 4.96875 0 Z M 4.96875 -56.28125 C 4.96875 -56.28125 4.96875 -60.101562 4.96875 -67.75 C 4.96875 -67.75 9.03125 -67.75 17.15625 -67.75 C 17.15625 -67.75 17.15625 -63.925781 17.15625 -56.28125 C 17.15625 -56.28125 13.09375 -56.28125 4.96875 -56.28125 Z M 4.96875 -56.28125 "/></g></g></g><g fill="#737373" fill-opacity="1"><g transform="translate(166.50503, 74.145441)"><g><path d="M 7.171875 0 C 7.171875 0 7.171875 -13.238281 7.171875 -39.71875 C 7.171875 -39.71875 5.179688 -39.71875 1.203125 -39.71875 C 1.203125 -39.71875 1.203125 -43.421875 1.203125 -50.828125 C 1.203125 -50.828125 3.191406 -50.828125 7.171875 -50.828125 C 7.171875 -50.828125 7.171875 -56.46875 7.171875 -67.75 C 7.171875 -67.75 11.226562 -67.75 19.34375 -67.75 C 19.34375 -67.75 19.34375 -62.109375 19.34375 -50.828125 C 19.34375 -50.828125 21.789062 -50.828125 26.6875 -50.828125 C 26.6875 -50.828125 26.6875 -47.125 26.6875 -39.71875 C 26.6875 -39.71875 24.238281 -39.71875 19.34375 -39.71875 C 19.34375 -39.71875 19.34375 -26.476562 19.34375 0 C 19.34375 0 15.285156 0 7.171875 0 Z M 7.171875 0 "/></g></g></g><g fill="#4285f4" fill-opacity="1"><g transform="translate(194.006549, 74.145441)"><g><path d="M 56.1875 -50.828125 C 56.1875 -50.828125 56.1875 -33.882812 56.1875 0 C 56.1875 0 52.472656 0 45.046875 0 C 45.046875 0 45.046875 -2.191406 45.046875 -6.578125 C 42.597656 -3.804688 40.066406 -1.816406 37.453125 -0.609375 C 34.835938 0.597656 31.742188 1.203125 28.171875 1.203125 C 23.273438 1.203125 18.878906 0.078125 14.984375 -2.171875 C 11.085938 -4.421875 8.039062 -7.5625 5.84375 -11.59375 C 3.644531 -15.625 2.546875 -20.160156 2.546875 -25.203125 C 2.546875 -30.304688 3.648438 -34.894531 5.859375 -38.96875 C 8.066406 -43.050781 11.140625 -46.238281 15.078125 -48.53125 C 19.023438 -50.832031 23.476562 -51.984375 28.4375 -51.984375 C 32.101562 -51.984375 35.265625 -51.347656 37.921875 -50.078125 C 40.578125 -48.816406 42.953125 -46.796875 45.046875 -44.015625 L 45.046875 -50.828125 Z M 29.515625 -40.796875 C 25.273438 -40.796875 21.769531 -39.300781 19 -36.3125 C 16.238281 -33.332031 14.859375 -29.539062 14.859375 -24.9375 C 14.859375 -20.488281 16.253906 -16.882812 19.046875 -14.125 C 21.835938 -11.363281 25.457031 -9.984375 29.90625 -9.984375 C 34.320312 -9.984375 37.878906 -11.382812 40.578125 -14.1875 C 43.285156 -17 44.640625 -20.671875 44.640625 -25.203125 C 44.640625 -29.804688 43.226562 -33.554688 40.40625 -36.453125 C 37.59375 -39.347656 33.960938 -40.796875 29.515625 -40.796875 Z M 29.515625 -40.796875 "/></g></g></g><g fill="#4285f4" fill-opacity="1"><g transform="translate(255.16165, 74.145441)"><g><path d="M 4.96875 0 C 4.96875 0 4.96875 -22.582031 4.96875 -67.75 C 4.96875 -67.75 9.03125 -67.75 17.15625 -67.75 C 17.15625 -67.75 17.15625 -45.164062 17.15625 0 C 17.15625 0 13.09375 0 4.96875 0 Z M 4.96875 0 "/></g></g></g><g fill="#4285f4" fill-opacity="1"><g transform="translate(277.233008, 74.145441)"><g><path d="M 4.96875 0 C 4.96875 0 4.96875 -22.582031 4.96875 -67.75 C 4.96875 -67.75 9.03125 -67.75 17.15625 -67.75 C 17.15625 -67.75 17.15625 -45.164062 17.15625 0 C 17.15625 0 13.09375 0 4.96875 0 Z M 4.96875 0 "/></g></g></g></g></g></g></svg>